<svg xmlns="http://www.w3.org/2000/svg" version="1.1" xmlns:xlink="http://www.w3.org/1999/xlink" width="1024" height="1024"><svg width="1024" height="1024" viewBox="0 0 1024 1024" fill="none" xmlns="http://www.w3.org/2000/svg">
<path d="M1024 180V583.235C1024 694.443 961.028 751.401 908.153 779.587C852.83 809.139 797.876 813.125 795.579 813.298L768.145 815.118V302.474L625.081 670.199C603.129 726.356 561.436 759.958 524.62 779.587C469.275 809.139 414.342 813.125 412.023 813.298L384.611 815.118V330.921C384.611 303.102 350.698 289.496 331.477 309.58L146.698 537.412C235.696 539.124 305.971 608.496 305.971 690.586C305.971 777.637 232.836 847.963 144.748 843.326C66.3248 839.188 3.24401 775.189 0.12356 696.761C-1.34999 659.756 10.4384 625.504 31.0897 598.292L30.7213 597.945L377.33 180H640.466V397.541C640.466 412.404 660.706 416.802 666.86 403.239L768.145 180H1024Z" fill="#4C4C4C"></path>
</svg><style>@media (prefers-color-scheme: light) { :root { filter: none; } }
@media (prefers-color-scheme: dark) { :root { filter: none; } }
</style></svg>