<svg width="26" height="26" viewBox="0 0 26 26" fill="none" xmlns="http://www.w3.org/2000/svg">
<g clip-path="url(#clip0_390_21327)">
<path d="M13.0007 26V0" stroke="#DCAB49" stroke-width="0.6" stroke-miterlimit="10"/>
<path d="M10.7427 25.8036L15.2572 0.198242" stroke="#DCAB49" stroke-width="0.6" stroke-miterlimit="10"/>
<path d="M8.55319 25.2167L17.4468 0.783691" stroke="#DCAB49" stroke-width="0.6" stroke-miterlimit="10"/>
<path d="M6.50034 24.2591L19.4996 1.74219" stroke="#DCAB49" stroke-width="0.6" stroke-miterlimit="10"/>
<path d="M4.64413 22.9585L21.3559 3.0415" stroke="#DCAB49" stroke-width="0.6" stroke-miterlimit="10"/>
<path d="M3.04147 21.3558L22.9585 4.64404" stroke="#DCAB49" stroke-width="0.6" stroke-miterlimit="10"/>
<path d="M1.74225 19.4998L24.2592 6.50049" stroke="#DCAB49" stroke-width="0.6" stroke-miterlimit="10"/>
<path d="M0.783508 17.4469L25.2165 8.55469" stroke="#DCAB49" stroke-width="0.6" stroke-miterlimit="10"/>
<path d="M0.197998 15.2572L25.8034 10.7427" stroke="#DCAB49" stroke-width="0.6" stroke-miterlimit="10"/>
<path d="M0 13.001H26" stroke="#DCAB49" stroke-width="0.6" stroke-miterlimit="10"/>
<path d="M0.197998 10.7427L25.8034 15.2572" stroke="#DCAB49" stroke-width="0.6" stroke-miterlimit="10"/>
<path d="M0.783508 8.55469L25.2165 17.4469" stroke="#DCAB49" stroke-width="0.6" stroke-miterlimit="10"/>
<path d="M1.74225 6.50049L24.2592 19.4998" stroke="#DCAB49" stroke-width="0.6" stroke-miterlimit="10"/>
<path d="M3.04147 4.64404L22.9585 21.3558" stroke="#DCAB49" stroke-width="0.6" stroke-miterlimit="10"/>
<path d="M4.64413 3.0415L21.3559 22.9585" stroke="#DCAB49" stroke-width="0.6" stroke-miterlimit="10"/>
<path d="M6.50034 1.74219L19.4996 24.2591" stroke="#DCAB49" stroke-width="0.6" stroke-miterlimit="10"/>
<path d="M8.55319 0.783691L17.4468 25.2167" stroke="#DCAB49" stroke-width="0.6" stroke-miterlimit="10"/>
<path d="M10.7427 0.198242L15.2572 25.8036" stroke="#DCAB49" stroke-width="0.6" stroke-miterlimit="10"/>
</g>
<defs>
<clipPath id="clip0_390_21327">
<rect width="26" height="26" fill="white"/>
</clipPath>
</defs>
</svg>
