<svg width="26" height="26" viewBox="0 0 26 26" fill="none" xmlns="http://www.w3.org/2000/svg">
<g clip-path="url(#clip0_390_21329)">
<path d="M13.0007 0.815175C19.7191 0.815175 25.1862 6.28092 25.1862 13.0007C25.1862 19.7204 19.7204 25.1862 13.0007 25.1862C6.28092 25.1862 0.815175 19.7191 0.815175 13.0007C0.815175 6.28228 6.28092 0.815175 13.0007 0.815175ZM13.0007 0C5.82035 0 0 5.82035 0 13.0007C0 20.181 5.82035 26.0014 13.0007 26.0014C20.181 26.0014 26.0014 20.181 26.0014 13.0007C26.0014 5.82035 20.1797 0 13.0007 0Z" fill="#81A962"/>
<path d="M13.0006 6.57836C16.5412 6.57836 19.4229 9.45864 19.4229 13.0006C19.4229 16.5425 16.5426 19.4228 13.0006 19.4228C9.4587 19.4228 6.57842 16.5425 6.57842 13.0006C6.57842 9.45864 9.4587 6.57836 13.0006 6.57836ZM13.0006 5.76318C9.00357 5.76318 5.76324 9.0035 5.76324 13.0006C5.76324 16.9977 9.00357 20.238 13.0006 20.238C16.9977 20.238 20.238 16.9977 20.238 13.0006C20.238 9.0035 16.9977 5.76318 13.0006 5.76318Z" fill="#81A962"/>
<path d="M13.0007 2.73607C18.6607 2.73607 23.2651 7.34045 23.2651 13.0005C23.2651 18.6605 18.6607 23.2649 13.0007 23.2649C7.34064 23.2649 2.73626 18.6592 2.73626 13.0005C2.73626 7.34181 7.34064 2.73607 13.0007 2.73607ZM13.0007 1.9209C6.88142 1.9209 1.92108 6.88124 1.92108 13.0005C1.92108 19.1197 6.88142 24.0801 13.0007 24.0801C19.1199 24.0801 24.0803 19.1197 24.0803 13.0005C24.0803 6.88124 19.1186 1.9209 13.0007 1.9209Z" fill="#81A962"/>
<path d="M13.0007 4.65746C17.601 4.65746 21.344 8.40047 21.344 13.0008C21.344 17.6011 17.601 21.3441 13.0007 21.3441C8.40035 21.3441 4.65734 17.6011 4.65734 13.0008C4.65734 8.40047 8.40035 4.65746 13.0007 4.65746ZM13.0007 3.84229C7.94249 3.84229 3.84216 7.94262 3.84216 13.0008C3.84216 18.0589 7.94249 22.1593 13.0007 22.1593C18.0588 22.1593 22.1591 18.0589 22.1591 13.0008C22.1591 7.94262 18.0575 3.84229 13.0007 3.84229Z" fill="#81A962"/>
</g>
<defs>
<clipPath id="clip0_390_21329">
<rect width="26" height="26" fill="white"/>
</clipPath>
</defs>
</svg>
