<svg width="24" height="24" viewBox="0 0 24 24" fill="none" xmlns="http://www.w3.org/2000/svg">
<path d="M16.1992 4.78458C16.1992 5.46396 15.9293 6.11925 15.4475 6.60108L14.7007 7.34792C14.2188 7.82975 13.5635 8.09958 12.8842 8.09958H11.1062C10.4268 8.09958 9.77153 7.82975 9.2897 7.34792L8.54286 6.60108C8.06103 6.11925 7.79121 5.46396 7.79121 4.78458V0H0V7.79602H4.78458C5.46396 7.79602 6.11925 8.06585 6.60108 8.54768L7.34792 9.29452C7.82975 9.77635 8.09958 10.4316 8.09958 11.111V12.889C8.09958 13.5684 7.82975 14.2236 7.34792 14.7055L6.60108 15.4523C6.11925 15.9341 5.46396 16.204 4.78458 16.204H0V24H7.79602V19.2154C7.79602 18.536 8.06585 17.8807 8.54768 17.3989L9.29452 16.6521C9.77635 16.1702 10.4316 15.9004 11.111 15.9004H12.889C13.5684 15.9004 14.2236 16.1702 14.7055 16.6521L15.4523 17.3989C15.9341 17.8807 16.204 18.536 16.204 19.2154V24H24V16.204H19.2154C18.536 16.204 17.8807 15.9341 17.3989 15.4523L16.6521 14.7055C16.1702 14.2236 15.9004 13.5684 15.9004 12.889V11.111C15.9004 10.4316 16.1702 9.77635 16.6521 9.29452L17.3989 8.54768C17.8807 8.06585 18.536 7.79602 19.2154 7.79602H24V0H16.204V4.78458H16.1992Z" fill="#B74A3F"/>
</svg>
