<svg width="357" height="357" viewBox="0 0 357 357" fill="none" xmlns="http://www.w3.org/2000/svg">
<g clip-path="url(#clip0_163_763)">
<path d="M178.51 357V0" stroke="#CAC2A6" stroke-width="2" stroke-miterlimit="10"/>
<path d="M147.506 354.301L209.494 2.71888" stroke="#CAC2A6" stroke-width="2" stroke-miterlimit="10"/>
<path d="M117.442 346.242L239.558 10.7582" stroke="#CAC2A6" stroke-width="2" stroke-miterlimit="10"/>
<path d="M89.2548 333.097L267.745 23.9225" stroke="#CAC2A6" stroke-width="2" stroke-miterlimit="10"/>
<path d="M63.7677 315.238L293.233 41.7618" stroke="#CAC2A6" stroke-width="2" stroke-miterlimit="10"/>
<path d="M41.7622 293.232L315.239 63.7674" stroke="#CAC2A6" stroke-width="2" stroke-miterlimit="10"/>
<path d="M23.922 267.745L333.096 89.2548" stroke="#CAC2A6" stroke-width="2" stroke-miterlimit="10"/>
<path d="M10.7585 239.558L346.242 117.461" stroke="#CAC2A6" stroke-width="2" stroke-miterlimit="10"/>
<path d="M2.71912 209.494L354.301 147.506" stroke="#CAC2A6" stroke-width="2" stroke-miterlimit="10"/>
<path d="M0 178.51H357" stroke="#CAC2A6" stroke-width="2" stroke-miterlimit="10"/>
<path d="M2.71912 147.506L354.301 209.494" stroke="#CAC2A6" stroke-width="2" stroke-miterlimit="10"/>
<path d="M10.7585 117.461L346.242 239.558" stroke="#CAC2A6" stroke-width="2" stroke-miterlimit="10"/>
<path d="M23.922 89.2548L333.096 267.745" stroke="#CAC2A6" stroke-width="2" stroke-miterlimit="10"/>
<path d="M41.7622 63.7674L315.239 293.232" stroke="#CAC2A6" stroke-width="2" stroke-miterlimit="10"/>
<path d="M63.7677 41.7618L293.233 315.238" stroke="#CAC2A6" stroke-width="2" stroke-miterlimit="10"/>
<path d="M89.2548 23.9225L267.745 333.097" stroke="#CAC2A6" stroke-width="2" stroke-miterlimit="10"/>
<path d="M117.442 10.7582L239.558 346.242" stroke="#CAC2A6" stroke-width="2" stroke-miterlimit="10"/>
<path d="M147.506 2.71888L209.494 354.301" stroke="#CAC2A6" stroke-width="2" stroke-miterlimit="10"/>
</g>
<defs>
<clipPath id="clip0_163_763">
<rect width="357" height="357" fill="white"/>
</clipPath>
</defs>
</svg>
