<svg width="32" height="20" viewBox="0 0 32 20" fill="none" xmlns="http://www.w3.org/2000/svg">
<path d="M31.0345 0.00109661V12.155C31.0345 15.507 29.1255 17.223 27.5243 18.0734C25.847 18.9643 24.1819 19.0839 24.1124 19.0894L23.2804 19.1443V3.69214L18.9448 14.7751C18.2794 16.467 17.0159 17.4809 15.9003 18.0723C14.223 18.9632 12.5579 19.0828 12.4873 19.0883L11.6564 19.1432V4.54906C11.6564 3.71079 10.629 3.30043 10.0464 3.90609L4.44626 10.7725C7.14315 10.8241 9.27286 12.9153 9.27286 15.3896C9.27286 18.013 7.05598 20.1328 4.38667 19.9935C2.01089 19.8684 0.0985689 17.9395 0.00367012 15.5761C-0.0404689 14.4602 0.315953 13.4277 0.941623 12.6081L0.93059 12.5972L11.4357 0H19.4105V6.55697C19.4105 7.00464 20.024 7.1374 20.2105 6.72923L23.2804 0.00109661H31.0345Z" fill="#4C4C4C"/>
</svg>
