<svg width="73" height="51" viewBox="0 0 73 51" fill="none" xmlns="http://www.w3.org/2000/svg">
<path d="M0.831135 0H1.06559L8.90193 6.1277L16.5482 0H16.7827V16.4897H13.0865V6.96959L8.87706 10.5716H8.78293L4.52551 6.96959V16.4897H0.829357V0H0.831135Z" fill="#4C4C4C"/>
<path d="M21.5074 0.351562H25.2497V10.456C25.2497 11.3761 25.4522 12.0812 25.8572 12.5732C26.2621 13.0652 26.8465 13.3103 27.612 13.3103C28.3775 13.3103 28.9832 13.0652 29.3899 12.5732C29.7949 12.0812 29.9974 11.3761 29.9974 10.456V0.351562H33.7397V10.7136C33.7397 12.726 33.214 14.2659 32.1607 15.3333C31.1075 16.4008 29.5906 16.9354 27.612 16.9354C25.6334 16.9354 24.1183 16.4008 23.074 15.3333C22.0296 14.2659 21.5074 12.726 21.5074 10.7136V0.351562Z" fill="#4C4C4C"/>
<path d="M42.5121 5.70664C43.0733 4.34966 43.647 3.26977 44.2314 2.46695C44.8157 1.66413 45.4782 1.08689 46.2189 0.735211C46.9595 0.383535 47.8281 0.209473 48.8263 0.209473C49.0749 0.209473 49.3058 0.225458 49.5154 0.255652C49.7268 0.287623 49.9008 0.317817 50.0412 0.349788V3.85767C49.979 3.84169 49.8973 3.83103 49.796 3.82215C49.6948 3.81504 49.5971 3.80972 49.503 3.80972C48.7854 3.80972 48.1851 4.04417 47.702 4.51129C47.2189 4.97842 46.7429 5.76703 46.2757 6.87356L44.5458 11.131C43.9845 12.488 43.4108 13.5678 42.8265 14.3707C42.2421 15.1735 41.5832 15.7507 40.8496 16.1024C40.1161 16.4541 39.2351 16.6281 38.2067 16.6281C37.5833 16.6281 37.0451 16.566 36.5922 16.4416V12.9338C36.6703 12.9498 36.7876 12.9693 36.9439 12.9924C37.1002 13.0155 37.2565 13.0279 37.411 13.0279C38.1907 13.0279 38.8337 12.7935 39.3399 12.3263C39.8461 11.8592 40.3256 11.0706 40.7786 9.96405L42.5085 5.70664H42.5121Z" fill="#4C4C4C"/>
<path d="M53.4815 0.351562H57.2238V16.4914H53.4815V0.351562Z" fill="#4C4C4C"/>
<path d="M62.6165 12.7368C61.8439 11.497 61.4585 10.0353 61.4585 8.35149C61.4585 6.66771 61.8474 5.28409 62.6272 4.05855C63.4069 2.83479 64.5134 1.88811 65.9486 1.21672C67.3837 0.547117 69.0675 0.211426 71.0017 0.211426C71.2503 0.211426 71.5203 0.227411 71.8081 0.257606C72.0958 0.289576 72.3338 0.319771 72.5221 0.351741V3.95376C72.3817 3.92357 72.1828 3.89515 71.9253 3.87206C71.6677 3.84897 71.4137 3.83654 71.1651 3.83654C69.4653 3.83654 68.1083 4.23439 67.0959 5.0301C66.0818 5.82582 65.5756 6.91637 65.5756 8.30531C65.5756 9.24134 65.8047 10.0637 66.2647 10.7724C66.7247 11.4828 67.3641 12.0317 68.1829 12.4206C69.0017 12.8114 69.9573 13.005 71.0479 13.005C71.3747 13.005 71.6873 12.9926 71.9839 12.9695C72.2805 12.9464 72.499 12.9197 72.6393 12.8878V16.4667C72.4048 16.5129 72.1242 16.5519 71.7974 16.5839C71.4706 16.6141 71.1118 16.6301 70.7211 16.6301C68.881 16.6301 67.2629 16.2909 65.8668 15.6124C64.4708 14.9339 63.3874 13.9748 62.6147 12.735L62.6165 12.7368Z" fill="#4C4C4C"/>
<path d="M0.886294 28.7434C0.294838 27.7168 0 26.5445 0 25.2266C0 23.9087 0.294838 22.7205 0.886294 21.6992C1.47775 20.6797 2.29123 19.8804 3.33027 19.3014C4.36931 18.7224 5.56643 18.4329 6.92163 18.4329C8.27683 18.4329 9.49349 18.7224 10.5325 19.3014C11.5716 19.8804 12.3851 20.6797 12.9765 21.6992C13.568 22.7187 13.8628 23.8945 13.8628 25.2266C13.8628 26.5587 13.568 27.7185 12.9765 28.7434C12.3851 29.77 11.5698 30.5728 10.5325 31.1501C9.49349 31.7291 8.29103 32.0186 6.92163 32.0186C5.55222 32.0186 4.36754 31.7291 3.33027 31.1501C2.29123 30.571 1.47597 29.77 0.886294 28.7434ZM10.2643 27.2408C10.5876 26.6564 10.7492 25.985 10.7492 25.2248C10.7492 24.4646 10.5876 23.795 10.2643 23.2089C9.94107 22.6246 9.49349 22.1663 8.92157 21.8377C8.34965 21.5091 7.6836 21.344 6.92518 21.344C6.16677 21.344 5.51847 21.5091 4.94656 21.8377C4.37464 22.1681 3.9235 22.6246 3.59314 23.2089C3.26277 23.7933 3.09937 24.4646 3.09937 25.2248C3.09937 25.985 3.26455 26.6546 3.59314 27.2408C3.92172 27.8251 4.37286 28.2834 4.94656 28.6119C5.51847 28.9423 6.17743 29.1057 6.92518 29.1057C7.67294 29.1057 8.34965 28.9405 8.92157 28.6119C9.49349 28.2834 9.94107 27.8251 10.2643 27.2408Z" fill="#4C4C4C"/>
<path d="M17.261 18.5093H17.4475L24.2021 23.772V18.7899H27.1878V31.6652H24.2021V27.2426L20.2467 24.0526V31.6652H17.261V18.5111V18.5093Z" fill="#4C4C4C"/>
<path d="M40.3206 21.5305H36.8873V18.7881H46.7395V21.5305H43.3063V31.6634H40.3206V21.5305Z" fill="#4C4C4C"/>
<path d="M49.8369 18.7881H52.8226V24.4984H56.7781V18.7881H59.7638V31.6634H56.7781V27.223H52.8226V31.6634H49.8369V18.7881Z" fill="#4C4C4C"/>
<path d="M63.6448 18.7882H72.6392V21.5305H66.6127V23.9354H70.8613V26.4913H66.6127V28.9193H72.6392V31.6616H63.6448V18.7864V18.7882Z" fill="#4C4C4C"/>
<path d="M61.256 34.1853H72.84V37.7181H65.0765V40.8156H70.5488V44.1086H65.0765V47.2364H72.84V50.7692H61.256V34.1853Z" fill="#4C4C4C"/>
<path d="M1.32181 34.0576H1.55626L9.39261 40.1853L17.0407 34.0576H17.2751V50.5473H13.579V41.0272L9.36952 44.6292H9.27538L5.01797 41.0272V50.5473H1.32181V34.0576Z" fill="#4C4C4C"/>
<path d="M22.6423 46.8865C21.9017 45.6006 21.5305 44.13 21.5305 42.4781C21.5305 40.8263 21.8999 39.3361 22.6423 38.0573C23.383 36.7785 24.4043 35.7768 25.7062 35.0521C27.0081 34.3274 28.5089 33.9651 30.2087 33.9651C31.9085 33.9651 33.4324 34.3274 34.7343 35.0521C36.0362 35.7768 37.0575 36.7785 37.7982 38.0573C38.5388 39.3361 38.91 40.8103 38.91 42.4781C38.91 44.1459 38.5388 45.6006 37.7982 46.8865C37.0575 48.1725 36.0362 49.1795 34.7343 49.9042C33.4324 50.6289 31.9227 50.9912 30.2087 50.9912C28.4947 50.9912 27.0081 50.6289 25.7062 49.9042C24.4043 49.1795 23.383 48.1725 22.6423 46.8865ZM34.3951 45.0038C34.8 44.2703 35.0025 43.4284 35.0025 42.4781C35.0025 41.5279 34.8 40.6842 34.3951 39.9525C33.9901 39.2189 33.4289 38.647 32.7113 38.2332C31.9937 37.8193 31.1589 37.6133 30.2087 37.6133C29.2585 37.6133 28.4468 37.8193 27.7292 38.2332C27.0117 38.647 26.4468 39.2189 26.033 39.9525C25.6192 40.686 25.4131 41.5279 25.4131 42.4781C25.4131 43.4284 25.6192 44.2721 26.033 45.0038C26.4451 45.7374 27.0117 46.3093 27.7292 46.7231C28.4468 47.137 29.2727 47.343 30.2087 47.343C31.1447 47.343 31.9937 47.137 32.7113 46.7231C33.4289 46.3111 33.9901 45.7374 34.3951 45.0038Z" fill="#4C4C4C"/>
<path d="M40.6827 34.4075H45.0573L49.3378 43.5067L53.5722 34.4075H57.7585L49.3609 50.9221H49.1034L40.6827 34.4075Z" fill="#4C4C4C"/>
</svg>
